<svg width="25" height="25" viewBox="0 0 25 25" fill="none" xmlns="http://www.w3.org/2000/svg">
<path d="M14.474 8.89583C14.474 6.20312 13.1844 3.88854 12.2042 3.13542C12.2 3.13229 12.1281 3.09167 12.1354 3.19896L12.1333 3.20208C12.051 8.4 9.44063 9.80938 8.00521 11.7073C4.69271 16.0865 7.77396 20.8875 10.9115 21.775C12.6656 22.2719 10.5052 20.8969 10.2271 17.9927C9.89063 14.4823 14.474 11.8021 14.474 8.89583ZM16.1844 10.5385C16.1646 10.525 16.1365 10.5156 16.1167 10.549C16.0625 11.2104 15.4083 12.626 14.5792 13.926C11.7667 18.3344 13.3698 20.4594 14.2708 21.6C14.7948 22.2625 14.2708 21.6 15.5792 20.9229C15.6813 20.8708 18.1313 19.451 18.3958 16.2177C18.6531 13.0865 16.8333 11.1125 16.1844 10.5385Z" fill="#767676"/>
</svg>
