<svg width="25" height="25" viewBox="0 0 25 25" fill="none" xmlns="http://www.w3.org/2000/svg">
<path d="M11.4531 4.875V8.91667C11.4531 9.25132 11.387 9.58268 11.2587 9.89173C11.1303 10.2008 10.9421 10.4814 10.705 10.7176C10.4679 10.9537 10.1865 11.1407 9.8769 11.2679C9.56733 11.395 9.2357 11.4597 8.90104 11.4583H4.88021C4.54646 11.4604 4.21574 11.395 3.90787 11.2661C3.6 11.1372 3.32133 10.9475 3.08855 10.7083C2.85221 10.474 2.66505 10.1948 2.53805 9.88709C2.41105 9.57943 2.34676 9.24951 2.34896 8.91667V4.88542C2.34896 4.21313 2.61531 3.56822 3.08971 3.09186C3.56412 2.6155 4.20793 2.34651 4.88021 2.34375H8.91146C9.24486 2.34407 9.57489 2.41052 9.88243 2.53926C10.19 2.668 10.4689 2.85647 10.7031 3.09375C10.9401 3.32602 11.1285 3.60315 11.2572 3.90897C11.386 4.21479 11.4526 4.54318 11.4531 4.875ZM22.651 4.88542V8.91667C22.6456 9.58729 22.3775 10.2291 21.9043 10.7043C21.4311 11.1795 20.7904 11.4502 20.1198 11.4583H16.0781C15.4044 11.4542 14.7584 11.1891 14.276 10.7188C14.0403 10.4818 13.8537 10.2006 13.7268 9.89137C13.5999 9.58214 13.5352 9.25092 13.5365 8.91667V4.88542C13.5356 4.55184 13.6015 4.22147 13.7304 3.91377C13.8592 3.60607 14.0482 3.32725 14.2865 3.09375C14.5207 2.85647 14.7996 2.668 15.1072 2.53926C15.4147 2.41052 15.7447 2.34407 16.0781 2.34375H20.1094C20.7818 2.34919 21.4251 2.61872 21.9006 3.0942C22.3761 3.56968 22.6456 4.21301 22.651 4.88542ZM22.651 16.0833V20.1146C22.6456 20.7852 22.3775 21.427 21.9043 21.9022C21.4311 22.3774 20.7904 22.6481 20.1198 22.6563H16.0781C15.4001 22.6631 14.7461 22.4053 14.2552 21.9375C14.0186 21.7012 13.8313 21.4202 13.7043 21.1108C13.5773 20.8014 13.5132 20.4698 13.5156 20.1354V16.1042C13.5148 15.7706 13.5807 15.4402 13.7095 15.1325C13.8383 14.8248 14.0274 14.546 14.2656 14.3125C14.4998 14.0752 14.7788 13.8868 15.0863 13.758C15.3939 13.6293 15.7239 13.5628 16.0573 13.5625H20.0885C20.761 13.5679 21.4043 13.8375 21.8798 14.313C22.3552 14.7884 22.6248 15.4318 22.6302 16.1042L22.651 16.0833ZM11.4531 16.0938V20.125C11.4449 20.7974 11.1728 21.4396 10.6953 21.9131C10.2179 22.3867 9.57348 22.6536 8.90104 22.6563H4.88021C4.54742 22.6576 4.21764 22.5931 3.90992 22.4664C3.60219 22.3397 3.3226 22.1533 3.08728 21.9179C2.85195 21.6826 2.66555 21.403 2.53884 21.0953C2.41212 20.7876 2.34758 20.4578 2.34896 20.125V16.0938C2.35165 15.4213 2.61854 14.7769 3.09207 14.2995C3.5656 13.822 4.20782 13.5499 4.88021 13.5417H8.91146C9.58667 13.5486 10.2328 13.8175 10.7135 14.2917C11.1886 14.771 11.4546 15.4189 11.4531 16.0938Z" fill="#767676"/>
</svg>
