<svg width="25" height="25" viewBox="0 0 25 25" fill="none" xmlns="http://www.w3.org/2000/svg">
<path d="M12.3229 14.5833V13.9364C12.3224 13.5101 12.4342 13.0912 12.6471 12.7218C12.8599 12.3524 13.1663 12.0456 13.5354 11.8323C14.7083 11.1448 15.1125 9.68956 14.425 8.51665C13.7375 7.34373 12.2823 6.93956 11.1094 7.62706C10.3802 8.0729 9.89583 8.8406 9.89583 9.73019M12.5 17.7083H12.4917M22.9167 12.5C22.9167 6.74686 18.2531 2.08331 12.5 2.08331C6.74687 2.08331 2.08333 6.74686 2.08333 12.5C2.08333 18.2531 6.74687 22.9166 12.5 22.9166C18.2531 22.9166 22.9167 18.2531 22.9167 12.5Z" stroke="#767676" stroke-width="1.5" stroke-miterlimit="10" stroke-linecap="round" stroke-linejoin="round"/>
</svg>
