<svg width="25" height="25" viewBox="0 0 25 25" fill="none" xmlns="http://www.w3.org/2000/svg">
<path d="M12.5 8.33331V12.5L15.1042 15.1041" stroke="#767676" stroke-width="1.5" stroke-linecap="round" stroke-linejoin="round"/>
<path d="M4.51874 7.15728L3.73749 7.1604C3.73831 7.36634 3.82042 7.56363 3.96594 7.70935C4.11146 7.85506 4.30864 7.93743 4.51458 7.93853L4.51874 7.15728ZM7.16666 7.95103C7.26926 7.95151 7.37094 7.93177 7.46591 7.89295C7.56088 7.85413 7.64727 7.79699 7.72015 7.72478C7.79304 7.65258 7.85099 7.56672 7.89069 7.47212C7.9304 7.37751 7.95108 7.27602 7.95156 7.17342C7.95203 7.07083 7.9323 6.96914 7.89348 6.87417C7.85466 6.77921 7.79752 6.69281 7.72531 6.61993C7.6531 6.54704 7.56725 6.4891 7.47265 6.44939C7.37804 6.40969 7.27655 6.38901 7.17395 6.38853L7.16666 7.95103ZM5.28645 4.50103C5.2859 4.39843 5.26516 4.29695 5.22539 4.20237C5.18562 4.1078 5.12762 4.02198 5.05468 3.94982C4.98175 3.87766 4.89532 3.82057 4.80032 3.78182C4.70533 3.74306 4.60363 3.7234 4.50104 3.72394C4.39844 3.72449 4.29696 3.74524 4.20238 3.78501C4.1078 3.82477 4.02199 3.88278 3.94983 3.95571C3.87767 4.02865 3.82058 4.11508 3.78183 4.21007C3.74307 4.30507 3.7234 4.40677 3.72395 4.50936L5.28645 4.50103ZM3.98645 11.2344C4.00142 11.1323 3.99601 11.0282 3.97054 10.9282C3.94507 10.8282 3.90004 10.7342 3.83804 10.6517C3.77605 10.5692 3.69833 10.4998 3.60936 10.4475C3.5204 10.3952 3.42196 10.3611 3.31972 10.347C3.21748 10.333 3.11348 10.3394 3.01371 10.3658C2.91395 10.3921 2.8204 10.438 2.73846 10.5008C2.65653 10.5635 2.58784 10.6419 2.53636 10.7313C2.48489 10.8207 2.45164 10.9195 2.43854 11.0219L3.98645 11.2344ZM19.6479 5.35207C15.6687 1.3729 9.23853 1.33124 5.28541 5.2854L6.38958 6.38957C9.72291 3.05728 15.1635 3.07707 18.5437 6.45624L19.6479 5.35207ZM5.35208 19.6479C9.33124 23.6271 15.7615 23.6687 19.7146 19.7146L18.6104 18.6104C15.2771 21.9427 9.83645 21.9229 6.45624 18.5437L5.35208 19.6479ZM19.7146 19.7146C23.6677 15.7614 23.6271 9.33124 19.6479 5.35207L18.5437 6.45624C21.9229 9.83644 21.9427 15.2771 18.6104 18.6104L19.7146 19.7146ZM5.28541 5.2854L3.96562 6.60415L5.07083 7.70832L6.38958 6.38957L5.28541 5.2854ZM4.51458 7.93853L7.16666 7.95103L7.17395 6.38853L4.52291 6.37603L4.51458 7.93853ZM5.29999 7.15311L5.28645 4.50103L3.72395 4.50936L3.73749 7.1604L5.29999 7.15311ZM2.43749 11.0208C2.22331 12.586 2.37494 14.1795 2.88047 15.6763C3.386 17.173 4.23167 18.5321 5.35104 19.6469L6.4552 18.5427C5.50634 17.5983 4.78946 16.4467 4.36092 15.1784C3.93237 13.9101 3.80383 12.5597 3.98541 11.2333L2.43749 11.0208Z" fill="#767676"/>
</svg>
