<svg width="25" height="25" viewBox="0 0 25 25" fill="none" xmlns="http://www.w3.org/2000/svg">
<path d="M12.5 3.38544C12.7072 3.38544 12.9059 3.46775 13.0524 3.61426C13.1989 3.76077 13.2813 3.95949 13.2813 4.16669C13.2813 4.37389 13.1989 4.5726 13.0524 4.71911C12.9059 4.86563 12.7072 4.94794 12.5 4.94794C10.4971 4.94794 8.57617 5.7436 7.15988 7.15989C5.74359 8.57618 4.94792 10.4971 4.94792 12.5C4.94792 14.503 5.74359 16.4239 7.15988 17.8401C8.57617 19.2564 10.4971 20.0521 12.5 20.0521C12.7072 20.0521 12.9059 20.1344 13.0524 20.2809C13.1989 20.4274 13.2813 20.6262 13.2813 20.8334C13.2813 21.0406 13.1989 21.2393 13.0524 21.3858C12.9059 21.5323 12.7072 21.6146 12.5 21.6146C10.0827 21.6146 7.76434 20.6543 6.05502 18.945C4.34571 17.2357 3.38542 14.9174 3.38542 12.5C3.38542 10.0827 4.34571 7.76435 6.05502 6.05504C7.76434 4.34572 10.0827 3.38544 12.5 3.38544Z" fill="#767676"/>
<path d="M17.1563 9.92707C17.0183 9.77897 16.9431 9.58309 16.9467 9.38069C16.9503 9.17829 17.0323 8.98518 17.1754 8.84204C17.3185 8.69891 17.5116 8.61691 17.714 8.61334C17.9164 8.60977 18.1123 8.6849 18.2604 8.8229L21.3854 11.9479C21.5317 12.0944 21.6139 12.293 21.6139 12.5C21.6139 12.707 21.5317 12.9056 21.3854 13.0521L18.2604 16.1771C18.1889 16.2538 18.1026 16.3154 18.0068 16.3581C17.911 16.4008 17.8075 16.4237 17.7026 16.4256C17.5977 16.4275 17.4935 16.4082 17.3963 16.3689C17.299 16.3296 17.2106 16.2711 17.1364 16.1969C17.0622 16.1227 17.0038 16.0343 16.9645 15.9371C16.9252 15.8398 16.9059 15.7356 16.9077 15.6307C16.9096 15.5258 16.9325 15.4223 16.9752 15.3265C17.0179 15.2307 17.0795 15.1444 17.1563 15.0729L18.9479 13.2812H10.4167C10.2095 13.2812 10.0108 13.1989 9.86424 13.0524C9.71773 12.9059 9.63542 12.7072 9.63542 12.5C9.63542 12.2928 9.71773 12.0941 9.86424 11.9476C10.0108 11.801 10.2095 11.7187 10.4167 11.7187H18.9479L17.1563 9.92707Z" fill="#767676"/>
</svg>
