<svg width="25" height="25" viewBox="0 0 25 25" fill="none" xmlns="http://www.w3.org/2000/svg">
<path d="M10.4167 2.08334C9.79167 2.08334 9.37501 2.50001 9.37501 3.12501V21.875C9.37501 22.5 9.79167 22.9167 10.4167 22.9167C11.0417 22.9167 11.4583 22.5 11.4583 21.875V3.12501C11.4583 2.50001 11.0417 2.08334 10.4167 2.08334ZM5.20834 12.5C4.58334 12.5 4.16667 12.9167 4.16667 13.5417V21.875C4.16667 22.5 4.58334 22.9167 5.20834 22.9167C5.83334 22.9167 6.25001 22.5 6.25001 21.875V13.5417C6.25001 12.9167 5.83334 12.5 5.20834 12.5ZM15.625 8.33334C15 8.33334 14.5833 8.75001 14.5833 9.37501V21.875C14.5833 22.5 15 22.9167 15.625 22.9167C16.25 22.9167 16.6667 22.5 16.6667 21.875V9.37501C16.6667 8.75001 16.25 8.33334 15.625 8.33334ZM20.8333 16.6667C20.2083 16.6667 19.7917 17.0833 19.7917 17.7083V21.875C19.7917 22.5 20.2083 22.9167 20.8333 22.9167C21.4583 22.9167 21.875 22.5 21.875 21.875V17.7083C21.875 17.0833 21.4583 16.6667 20.8333 16.6667Z" fill="#767676"/>
</svg>
