<svg width="25" height="25" viewBox="0 0 25 25" fill="none" xmlns="http://www.w3.org/2000/svg">
<path d="M12.5 15.625C14.2259 15.625 15.625 14.2259 15.625 12.5C15.625 10.7741 14.2259 9.375 12.5 9.375C10.7741 9.375 9.375 10.7741 9.375 12.5C9.375 14.2259 10.7741 15.625 12.5 15.625Z" stroke="#767676" stroke-width="1.5"/>
<path d="M14.3385 2.24168C13.9562 2.08334 13.4708 2.08334 12.5 2.08334C11.5292 2.08334 11.0437 2.08334 10.6615 2.24168C10.4085 2.34638 10.1787 2.4999 9.98513 2.69347C9.79156 2.88704 9.63803 3.11687 9.53333 3.3698C9.4375 3.60209 9.39896 3.87397 9.38437 4.26876C9.37759 4.5541 9.29854 4.83306 9.15462 5.07955C9.01071 5.32603 8.80662 5.53198 8.56146 5.67814C8.3123 5.81748 8.03186 5.89134 7.74638 5.89279C7.46091 5.89425 7.17973 5.82326 6.92916 5.68647C6.57916 5.50105 6.32604 5.39897 6.075 5.36564C5.52741 5.29363 4.97364 5.442 4.53541 5.77814C4.20833 6.03126 3.96458 6.45105 3.47916 7.29168C2.99375 8.1323 2.75 8.55209 2.69687 8.96355C2.66107 9.23486 2.67908 9.51056 2.74986 9.7749C2.82064 10.0392 2.9428 10.2871 3.10937 10.5042C3.26354 10.7042 3.47916 10.8719 3.81354 11.0823C4.30625 11.3917 4.62291 11.9188 4.62291 12.5C4.62291 13.0813 4.30625 13.6083 3.81354 13.9167C3.47916 14.1281 3.2625 14.2958 3.10937 14.4958C2.9428 14.713 2.82064 14.9608 2.74986 15.2251C2.67908 15.4895 2.66107 15.7652 2.69687 16.0365C2.75104 16.4469 2.99375 16.8677 3.47812 17.7083C3.96458 18.549 4.20729 18.9688 4.53541 19.2219C4.75253 19.3885 5.00034 19.5106 5.26469 19.5814C5.52903 19.6522 5.80473 19.6702 6.07604 19.6344C6.32604 19.6011 6.57916 19.499 6.92916 19.3136C7.17973 19.1768 7.46091 19.1058 7.74638 19.1072C8.03186 19.1087 8.3123 19.1825 8.56146 19.3219C9.06458 19.6136 9.36354 20.15 9.38437 20.7313C9.39896 21.1271 9.43646 21.3979 9.53333 21.6302C9.63803 21.8832 9.79156 22.113 9.98513 22.3065C10.1787 22.5001 10.4085 22.6536 10.6615 22.7583C11.0437 22.9167 11.5292 22.9167 12.5 22.9167C13.4708 22.9167 13.9562 22.9167 14.3385 22.7583C14.5915 22.6536 14.8213 22.5001 15.0149 22.3065C15.2084 22.113 15.362 21.8832 15.4667 21.6302C15.5625 21.3979 15.601 21.1271 15.6156 20.7313C15.6365 20.15 15.9354 19.6125 16.4385 19.3219C16.6877 19.1825 16.9681 19.1087 17.2536 19.1072C17.5391 19.1058 17.8203 19.1768 18.0708 19.3136C18.4208 19.499 18.674 19.6011 18.924 19.6344C19.1953 19.6702 19.471 19.6522 19.7353 19.5814C19.9996 19.5106 20.2475 19.3885 20.4646 19.2219C20.7927 18.9698 21.0354 18.549 21.5208 17.7083C22.0062 16.8677 22.25 16.4479 22.3031 16.0365C22.3389 15.7652 22.3209 15.4895 22.2501 15.2251C22.1794 14.9608 22.0572 14.713 21.8906 14.4958C21.7365 14.2958 21.5208 14.1281 21.1865 13.9177C20.9426 13.7692 20.7405 13.5612 20.5989 13.3132C20.4574 13.0653 20.381 12.7855 20.3771 12.5C20.3771 11.9188 20.6937 11.3917 21.1865 11.0833C21.5208 10.8719 21.7375 10.7042 21.8906 10.5042C22.0572 10.2871 22.1794 10.0392 22.2501 9.7749C22.3209 9.51056 22.3389 9.23486 22.3031 8.96355C22.249 8.55314 22.0062 8.1323 21.5219 7.29168C21.0354 6.45105 20.7927 6.03126 20.4646 5.77814C20.2475 5.61156 19.9996 5.4894 19.7353 5.41862C19.471 5.34784 19.1953 5.32984 18.924 5.36564C18.674 5.39897 18.4208 5.50105 18.0698 5.68647C17.8193 5.82308 17.5384 5.89396 17.2531 5.89251C16.9678 5.89105 16.6876 5.81729 16.4385 5.67814C16.1934 5.53198 15.9893 5.32603 15.8454 5.07955C15.7015 4.83306 15.6224 4.5541 15.6156 4.26876C15.601 3.87293 15.5635 3.60209 15.4667 3.3698C15.362 3.11687 15.2084 2.88704 15.0149 2.69347C14.8213 2.4999 14.5915 2.34638 14.3385 2.24168Z" stroke="#767676" stroke-width="1.5"/>
</svg>
